<svg xmlns="http://www.w3.org/2000/svg" viewBox="0 0 520 520" role="img" aria-labelledby="title desc">
  <title id="title">응원하는 Pathi</title>
  <desc id="desc">Pathi가 두 팔을 들고 면접 준비 완료를 축하한다.</desc>
  <defs>
    <linearGradient id="body" x1="0" y1="0" x2="1" y2="1"><stop stop-color="#fff"/><stop offset="1" stop-color="#f1eee7"/></linearGradient>
    <filter id="shadow" x="-40%" y="-40%" width="180%" height="180%"><feDropShadow dx="0" dy="22" stdDeviation="18" flood-color="#8e3d1d" flood-opacity=".18"/></filter>
  </defs>
  <ellipse cx="260" cy="455" rx="145" ry="32" fill="#111" opacity=".09"/>
  <g filter="url(#shadow)">
    <path d="M209 118c0-26 21-47 47-47h8c26 0 47 21 47 47v18H209z" fill="url(#body)" stroke="#111" stroke-width="8"/>
    <circle cx="260" cy="56" r="20" fill="#ff642f" stroke="#111" stroke-width="8"/><path d="M260 72v24" stroke="#111" stroke-width="8" stroke-linecap="round"/>
    <rect x="147" y="126" width="226" height="215" rx="72" fill="url(#body)" stroke="#111" stroke-width="9"/>
    <rect x="175" y="157" width="170" height="112" rx="44" fill="#111"/>
    <path d="M205 213c11-15 26-15 37 0M278 213c11-15 26-15 37 0" fill="none" stroke="#fff" stroke-width="10" stroke-linecap="round"/>
    <path d="M218 236c24 22 60 22 84 0" fill="none" stroke="#ff642f" stroke-width="11" stroke-linecap="round"/>
    <circle cx="260" cy="304" r="27" fill="#fff" stroke="#111" stroke-width="7"/><path d="M260 284l10 20-10 20-10-20z" fill="#ff642f"/><circle cx="260" cy="304" r="5" fill="#111"/>
    <path d="M158 201c-42-20-65-61-65-102" fill="none" stroke="#111" stroke-width="26" stroke-linecap="round"/>
    <path d="M366 201c42-20 65-61 65-102" fill="none" stroke="#111" stroke-width="26" stroke-linecap="round"/>
    <circle cx="93" cy="88" r="23" fill="url(#body)" stroke="#111" stroke-width="8"/><circle cx="431" cy="88" r="23" fill="url(#body)" stroke="#111" stroke-width="8"/>
    <path d="M181 335v80M339 335v80" stroke="#111" stroke-width="32" stroke-linecap="round"/><path d="M151 426h69M305 426h69" stroke="#111" stroke-width="27" stroke-linecap="round"/>
  </g>
  <g fill="#ff642f"><path d="M62 49l9 18 20 3-14 14 3 20-18-9-18 9 3-20-14-14 20-3z"/><path d="M449 32l7 15 17 2-12 12 3 17-15-8-15 8 3-17-12-12 17-2z"/><circle cx="115" cy="40" r="8"/><circle cx="405" cy="42" r="8"/></g>
</svg>
